<svg xmlns="http://www.w3.org/2000/svg" version="1.1" viewBox="70 225.51 346 64.49">
<path d="M0 0 C9.9 0 19.8 0 30 0 C31 6 31 6 29 9 C27.12060547 9.34057617 27.12060547 9.34057617 24.8671875 9.29296875 C24.06152344 9.28330078 23.25585938 9.27363281 22.42578125 9.26367188 C21.58402344 9.23853516 20.74226563 9.21339844 19.875 9.1875 C19.02550781 9.17396484 18.17601562 9.16042969 17.30078125 9.14648438 C15.20025163 9.11108219 13.10004707 9.05727401 11 9 C11 10.98 11 12.96 11 15 C16.28 15 21.56 15 27 15 C27 17.64 27 20.28 27 23 C21.72 23.33 16.44 23.66 11 24 C11 25.65 11 27.3 11 29 C17.6 29.33 24.2 29.66 31 30 C31.33 30.99 31.66 31.98 32 33 C36.40513599 24.54161759 40.30601315 16.07537414 43.73828125 7.1796875 C45 4 45 4 47 0 C50.63 0 54.26 0 58 0 C59.90236088 4.26128837 61.79749134 8.5247029 63.6484375 12.80859375 C64.24443567 14.18505003 64.84079753 15.56134889 65.4375 16.9375 C65.88730225 17.9752356 65.88730225 17.9752356 66.34619141 19.03393555 C68.43645333 23.81579083 70.68847875 28.47911946 73.15234375 33.08203125 C74 35 74 35 74 38 C70.37 38 66.74 38 63 38 C61 34 61 34 61 31 C55.39 31 49.78 31 44 31 C43.67 32.65 43.34 34.3 43 36 C42.505 36.99 42.505 36.99 42 38 C28.14 38 14.28 38 0 38 C0 25.46 0 12.92 0 0 Z M52 13 C51.01 15.97 50.02 18.94 49 22 C51.97 22.495 51.97 22.495 55 23 C56.39195915 18.82412255 54.82323219 16.86525224 53 13 C52.67 13 52.34 13 52 13 Z " fill="#40C3A9" transform="translate(112,235)"/>
<path d="M0 0 C0 0.66 0 1.32 0 2 C0.66 2 1.32 2 2 2 C4.61043188 6.55805879 4.32147255 10.00105813 3 15 C0.88282278 19.67877648 -1.34480635 24.34480635 -5 28 C-4.4946875 28.55429687 -3.989375 29.10859375 -3.46875 29.6796875 C-2.8190625 30.40414062 -2.169375 31.12859375 -1.5 31.875 C-0.8503125 32.59429687 -0.200625 33.31359375 0.46875 34.0546875 C2 36 2 36 2 38 C2.66 38 3.32 38 4 38 C6.1875 40.1875 6.1875 40.1875 8 43 C7.8125 45.625 7.8125 45.625 7 48 C6.67 48.99 6.34 49.98 6 51 C5.34 51 4.68 51 4 51 C3.7525 51.928125 3.505 52.85625 3.25 53.8125 C1.93545755 57.16458325 1.02036616 58.1877803 -2 60 C-4.96404505 57.19195732 -7.44499019 54.81684226 -9 51 C-9.66 51 -10.32 51 -11 51 C-11 50.34 -11 49.68 -11 49 C-11.66 49 -12.32 49 -13 49 C-14.38232443 47.37373596 -15.71937515 45.7074998 -17 44 C-21.01081079 45.54402511 -22.94606664 48.10387171 -25.5625 51.4375 C-30.35557477 57.50765035 -30.35557477 57.50765035 -33 60 C-36.27864546 58.90711818 -36.78134149 58.33827067 -38.6875 55.625 C-39.34298828 54.71621094 -39.34298828 54.71621094 -40.01171875 53.7890625 C-41 52 -41 52 -41 49 C-41.66 49 -42.32 49 -43 49 C-44.125 44.25 -44.125 44.25 -43 42 C-42.34 42 -41.68 42 -41 42 C-40.731875 41.42507813 -40.46375 40.85015625 -40.1875 40.2578125 C-38.96735136 37.93792462 -37.5854448 35.95985992 -36 33.875 C-35.2265625 32.85019531 -35.2265625 32.85019531 -34.4375 31.8046875 C-33 30 -33 30 -31 28 C-31.5775 27.34 -32.155 26.68 -32.75 26 C-37.23237182 20.02350423 -39.7817314 14.96430036 -39.453125 7.3359375 C-38.6765474 3.33254609 -37.04101344 1.70312306 -34 -1 C-23.86397314 -6.45786062 -10.01142851 -5.00571425 0 0 Z M-33 4 C-34.63485395 7.26970791 -34.5177595 10.46705279 -34 14 C-31.18296859 21.53040591 -25.47834868 28.24181426 -20 34 C-19.34 34 -18.68 34 -18 34 C-17.7834375 34.53496094 -17.566875 35.06992187 -17.34375 35.62109375 C-15.51682778 38.85538338 -13.04116187 41.38672878 -10.5 44.0625 C-7.78869481 46.93844517 -5.20153517 49.69769724 -3 53 C-2.34 53 -1.68 53 -1 53 C2.19153866 49.25908825 2.19153866 49.25908825 2.75 44.625 C2.5025 44.08875 2.255 43.5525 2 43 C1.34 43 0.68 43 0 43 C-0.268125 42.4225 -0.53625 41.845 -0.8125 41.25 C-2.02929189 38.94449957 -3.30333879 36.97943808 -5 35 C-5.66 35 -6.32 35 -7 35 C-7.20882812 34.47019531 -7.41765625 33.94039063 -7.6328125 33.39453125 C-9.91700825 29.39392555 -13.27914628 26.32412371 -16.48046875 23.04101562 C-20.0554676 19.284162 -22.69828546 15.66488262 -25 11 C-24.875 8.125 -24.875 8.125 -24 6 C-21.64653604 4.82326802 -20.1193967 4.83376134 -17.5 4.8125 C-16.7059375 4.79832031 -15.911875 4.78414062 -15.09375 4.76953125 C-13 5 -13 5 -11 7 C-10.47018981 10.97357645 -10.68118526 12.54170381 -13 15.875 C-13.66 16.57625 -14.32 17.2775 -15 18 C-14.67 18.66 -14.34 19.32 -14 20 C-13.34 20 -12.68 20 -12 20 C-11.34 21.32 -10.68 22.64 -10 24 C-9.01 24 -8.02 24 -7 24 C-5.98498002 22.13308826 -4.98857921 20.25604656 -4 18.375 C-3.443125 17.33085937 -2.88625 16.28671875 -2.3125 15.2109375 C-0.93060345 11.8302263 -0.65654912 9.61143801 -1 6 C-3.15204221 2.65237878 -6.25419498 1.92002229 -10 1 C-18.45014775 -0.53189813 -25.30965416 -0.08324179 -33 4 Z M-21 9 C-19.88145414 12.72614153 -19.88145414 12.72614153 -17 15 C-14.7226499 12.18490007 -14.7226499 12.18490007 -15 9 C-18.04913228 7.98888907 -18.04913228 7.98888907 -21 9 Z M-28 31 C-28.515625 31.825 -29.03125 32.65 -29.5625 33.5 C-32.31958345 37.6605086 -35.66028198 41.30379523 -39 45 C-37.68 47.31 -36.36 49.62 -35 52 C-32.02482427 52.31583648 -32.02482427 52.31583648 -30.3125 50.625 C-28.7905543 49.08882742 -28.7905543 49.08882742 -29 47 C-28.34 47 -27.68 47 -27 47 C-25.42159428 45.44294806 -25.42159428 45.44294806 -23.875 43.5 C-23.33617187 42.8503125 -22.79734375 42.200625 -22.2421875 41.53125 C-21.83226562 41.0259375 -21.42234375 40.520625 -21 40 C-22.20381448 37.50638429 -23.45428722 35.31856917 -25 33 C-25.66 33 -26.32 33 -27 33 C-27.33 32.34 -27.66 31.68 -28 31 Z " fill="#1B819C" transform="translate(331,230)"/>
<path d="M0 0 C1.55074219 -0.0309375 1.55074219 -0.0309375 3.1328125 -0.0625 C9.18575783 -0.09338237 13.52054544 0.36799896 18.875 3.25 C18.875 3.91 18.875 4.57 18.875 5.25 C19.535 5.25 20.195 5.25 20.875 5.25 C22.25458057 9.08216824 21.50986839 12.29970777 20.875 16.25 C20.55665779 20.20961033 20.55665779 20.20961033 22.4375 23.125 C24.15989009 26.86932627 24.19494053 28.37267471 22.875 32.25 C20.68470208 34.77726683 18.87474261 36.75012869 15.875 38.25 C13.84267366 38.33527628 11.80752994 38.35716135 9.7734375 38.34765625 C7.95585937 38.34282227 7.95585937 38.34282227 6.1015625 38.33789062 C4.83054687 38.32951172 3.55953125 38.32113281 2.25 38.3125 C0.97125 38.30798828 -0.3075 38.30347656 -1.625 38.29882812 C-4.79171292 38.28701203 -7.95833356 38.27053815 -11.125 38.25 C-12.13908851 34.05467456 -12.25409672 30.10611807 -12.2578125 25.796875 C-12.25876923 25.09604797 -12.25972595 24.39522095 -12.26071167 23.67315674 C-12.26138915 22.20072336 -12.25956512 20.72828693 -12.25537109 19.25585938 C-12.24998434 16.99342242 -12.25534709 14.73118109 -12.26171875 12.46875 C-12.26105852 11.03645789 -12.25977851 9.60416591 -12.2578125 8.171875 C-12.25668457 6.86831055 -12.25555664 5.56474609 -12.25439453 4.22167969 C-11.97622935 -2.16667231 -5.09890338 0.0248727 0 0 Z M-1.125 9.25 C-1.125 11.23 -1.125 13.21 -1.125 15.25 C2.175 15.25 5.475 15.25 8.875 15.25 C9.535 13.93 10.195 12.61 10.875 11.25 C10.545 10.59 10.215 9.93 9.875 9.25 C6.245 9.25 2.615 9.25 -1.125 9.25 Z M-1.125 23.25 C-1.125 25.56 -1.125 27.87 -1.125 30.25 C0.64549689 30.30410687 2.41646849 30.34284119 4.1875 30.375 C5.66669922 30.40980469 5.66669922 30.40980469 7.17578125 30.4453125 C10.09906527 30.45682639 10.09906527 30.45682639 12.875 28.25 C12.60823796 26.26508358 12.60823796 26.26508358 11.875 24.25 C8.86009443 23.24503148 6.83318308 23.14664697 3.6875 23.1875 C2.78644531 23.19652344 1.88539063 23.20554687 0.95703125 23.21484375 C-0.07357422 23.23224609 -0.07357422 23.23224609 -1.125 23.25 Z " fill="#1186CA" transform="translate(392.125,234.75)"/>
<path d="M0 0 C1.64574566 -0.02688151 3.29161413 -0.04634123 4.9375 -0.0625 C5.85402344 -0.07410156 6.77054687 -0.08570313 7.71484375 -0.09765625 C10 0 10 0 11 1 C11.14393457 5.33530918 11.04212061 9.66157731 11 14 C15.62 14 20.24 14 25 14 C25 9.38 25 4.76 25 0 C28.3 0 31.6 0 35 0 C36.20587804 3.61763412 36.14332385 6.9301055 36.1328125 10.6953125 C36.13376923 11.44336151 36.13472595 12.19141052 36.13571167 12.96212769 C36.13639143 14.54067062 36.13455137 16.11921636 36.13037109 17.69775391 C36.1250049 20.12278455 36.13033064 22.54763125 36.13671875 24.97265625 C36.13605823 26.50520874 36.1347776 28.03776112 36.1328125 29.5703125 C36.13483673 30.29944855 36.13686096 31.02858459 36.13894653 31.77981567 C36.1149618 36.8850382 36.1149618 36.8850382 35 38 C31.66381769 38.14257189 28.34024394 38.04228157 25 38 C25 33.38 25 28.76 25 24 C20.38 24 15.76 24 11 24 C11.020625 26.124375 11.04125 28.24875 11.0625 30.4375 C11.08373783 32.62499611 11.07258946 34.81360547 11 37 C10 38 10 38 7.71484375 38.09765625 C6.34005859 38.08025391 6.34005859 38.08025391 4.9375 38.0625 C4.01839844 38.05347656 3.09929687 38.04445313 2.15234375 38.03515625 C1.44207031 38.02355469 0.73179687 38.01195312 0 38 C-0.16767195 33.07059672 -0.32822547 28.14103251 -0.48217773 23.21118164 C-0.53555698 21.5340348 -0.59088316 19.85694876 -0.64819336 18.17993164 C-0.73021822 15.76982734 -0.80524581 13.35959139 -0.87890625 10.94921875 C-0.90594131 10.19912033 -0.93297638 9.44902191 -0.96083069 8.67619324 C-1.05259138 5.47767446 -1.02105583 3.06316748 0 0 Z " fill="#22B6C5" transform="translate(250,235)"/>
<path d="M0 0 C3.3 0 6.6 0 10 0 C10.33 4.62 10.66 9.24 11 14 C17.93 14.495 17.93 14.495 25 15 C25 10.05 25 5.1 25 0 C28.3 0 31.6 0 35 0 C35 12.54 35 25.08 35 38 C31.7 38 28.4 38 25 38 C23.4543243 33.36297289 23.94264372 28.87528349 24 24 C19.38 24 14.76 24 10 24 C10 28.62 10 33.24 10 38 C6.7 38 3.4 38 0 38 C0 25.46 0 12.92 0 0 Z " fill="#3EF9C9" transform="translate(70,235)"/>
<path d="M0 0 C1.23556641 0.01740234 1.23556641 0.01740234 2.49609375 0.03515625 C3.32238281 0.04417969 4.14867187 0.05320313 5 0.0625 C5.63808594 0.07410156 6.27617187 0.08570313 6.93359375 0.09765625 C7.7655761 2.98085622 8.03334476 5.47342708 7.9609375 8.46875 C7.94869141 9.29052734 7.93644531 10.11230469 7.92382812 10.95898438 C7.88875007 12.67261224 7.84970514 14.38616362 7.80664062 16.09960938 C7.71970483 22.32795151 7.71970483 22.32795151 9.93359375 28.09765625 C13.01373429 29.58462065 15.74989333 29.18681692 18.93359375 28.09765625 C21.02003143 24.94122726 21.22867806 22.18501463 21.34765625 18.45703125 C21.38632812 17.38710937 21.425 16.3171875 21.46484375 15.21484375 C21.49578125 14.10367188 21.52671875 12.9925 21.55859375 11.84765625 C21.59726562 10.72101563 21.6359375 9.594375 21.67578125 8.43359375 C21.76996711 5.65511077 21.85558961 2.87663291 21.93359375 0.09765625 C25.23359375 0.09765625 28.53359375 0.09765625 31.93359375 0.09765625 C32.92288645 5.09198875 33.14973639 9.9025168 33.18359375 14.97265625 C33.20421875 15.73707031 33.22484375 16.50148437 33.24609375 17.2890625 C33.29236683 24.10277377 32.005295 29.58980737 27.55859375 34.97265625 C22.04552146 39.43561954 16.8478054 39.79988087 9.93359375 39.09765625 C5.414532 37.92509667 1.7564091 35.86141005 -1.06640625 32.09765625 C-3.50677689 25.70039892 -3.33069749 19.50453488 -3.25390625 12.72265625 C-3.25326172 11.61792969 -3.25261719 10.51320312 -3.25195312 9.375 C-3.20089928 0.15127123 -3.20089928 0.15127123 0 0 Z " fill="#1288C7" transform="translate(341.06640625,234.90234375)"/>
<path d="M0 0 C3.63 0 7.26 0 11 0 C12.90236088 4.26128837 14.79749134 8.5247029 16.6484375 12.80859375 C17.24443567 14.18505003 17.84079753 15.56134889 18.4375 16.9375 C18.73736816 17.62932373 19.03723633 18.32114746 19.34619141 19.03393555 C21.43645333 23.81579083 23.68847875 28.47911946 26.15234375 33.08203125 C27 35 27 35 27 38 C23.37 38 19.74 38 16 38 C14 34 14 34 14 31 C13.34 30.67 12.68 30.34 12 30 C12.33 29.67 12.66 29.34 13 29 C9.7 28.67 6.4 28.34 3 28 C3.99 27.67 4.98 27.34 6 27 C5.67 26.01 5.34 25.02 5 24 C6.65 23.67 8.3 23.34 10 23 C10.93423645 19.98968256 11.04449911 19.13349732 10 16 C7.525 15.505 7.525 15.505 5 15 C4.67 15.66 4.34 16.32 4 17 C3.34 17 2.68 17 2 17 C1.34 19.31 0.68 21.62 0 24 C0.99 24.33 1.98 24.66 3 25 C2.34 25 1.68 25 1 25 C0.67 25.99 0.34 26.98 0 28 C-1.65 28.33 -3.3 28.66 -5 29 C-5.33 31.31 -5.66 33.62 -6 36 C-8.31 36 -10.62 36 -13 36 C-12.67 34.35 -12.34 32.7 -12 31 C-11.34 31 -10.68 31 -10 31 C-9.89042969 30.38511719 -9.78085938 29.77023437 -9.66796875 29.13671875 C-9.43013672 27.92435547 -9.43013672 27.92435547 -9.1875 26.6875 C-9.03667969 25.88699219 -8.88585937 25.08648437 -8.73046875 24.26171875 C-7.91262906 21.72947716 -6.93171203 20.77031572 -5 19 C-3.17924275 14.75156642 -2.66374404 10.70835256 -2.34375 6.1484375 C-2 4 -2 4 0 0 Z " fill="#32E1C9" transform="translate(159,235)"/>
<path d="M0 0 C11.55 0 23.1 0 35 0 C35 2.97 35 5.94 35 9 C31.04 9 27.08 9 23 9 C23 18.57 23 28.14 23 38 C19.37 38 15.74 38 12 38 C12 28.43 12 18.86 12 9 C8.04 9 4.08 9 0 9 C0 6.03 0 3.06 0 0 Z " fill="#2AB8BB" transform="translate(212,235)"/>
<path d="M0 0 C0.8146875 0.00257813 1.629375 0.00515625 2.46875 0.0078125 C3.2834375 0.00523437 4.098125 0.00265625 4.9375 0 C6.96875 0.1328125 6.96875 0.1328125 7.96875 1.1328125 C8.05642112 3.20543326 8.07570873 5.28101544 8.06640625 7.35546875 C8.06318359 8.61552734 8.05996094 9.87558594 8.05664062 11.17382812 C8.04828403 12.51432359 8.03981907 13.85481838 8.03125 15.1953125 C8.0262366 16.53971192 8.02167342 17.8841131 8.01757812 19.22851562 C8.00574488 22.52999191 7.98925971 25.83138053 7.96875 29.1328125 C9.17273438 29.10960937 10.37671875 29.08640625 11.6171875 29.0625 C13.19270215 29.04374387 14.76822348 29.02554351 16.34375 29.0078125 C17.1378125 28.99105469 17.931875 28.97429687 18.75 28.95703125 C20.82367015 28.93945777 22.89758241 29.02946082 24.96875 29.1328125 C26.96875 31.1328125 26.96875 31.1328125 27.15625 34.1953125 C26.96875 37.1328125 26.96875 37.1328125 25.96875 38.1328125 C23.82316173 38.22056855 21.67470579 38.23976469 19.52734375 38.23046875 C18.22216797 38.22724609 16.91699219 38.22402344 15.57226562 38.22070312 C14.1835931 38.21234651 12.79492123 38.20388155 11.40625 38.1953125 C10.01367344 38.19029916 8.62109519 38.18573597 7.22851562 38.18164062 C3.8085513 38.16980684 0.38867156 38.1533213 -3.03125 38.1328125 C-3.05589928 32.88175808 -3.07408568 27.63073705 -3.08618164 22.37963867 C-3.09122218 20.59187229 -3.09805454 18.80411005 -3.10668945 17.01635742 C-3.1187673 14.45230082 -3.12448094 11.88829853 -3.12890625 9.32421875 C-3.13406754 8.5200502 -3.13922882 7.71588165 -3.14454651 6.88734436 C-3.14474215 4.96879535 -3.09326983 3.05035882 -3.03125 1.1328125 C-2.03125 0.1328125 -2.03125 0.1328125 0 0 Z " fill="#2BE1D6" transform="translate(191.03125,234.8671875)"/>
<path d="M0 0 C0 0.66 0 1.32 0 2 C0.66 2 1.32 2 2 2 C4.61312198 6.56275596 4.31324401 9.99608748 3 15 C1.31448593 18.87062663 -0.53479474 22.56588322 -3 26 C-3.99 26.33 -4.98 26.66 -6 27 C-6 28.65 -6 30.3 -6 32 C-10.67106327 31.14923499 -12.93954302 28.28392486 -16 24.875 C-16.52078125 24.318125 -17.0415625 23.76125 -17.578125 23.1875 C-26.06415888 13.88714973 -26.06415888 13.88714973 -25.9375 8.1875 C-25 6 -25 6 -22 4 C-19.84375 3.69921875 -19.84375 3.69921875 -17.5 3.6875 C-16.7265625 3.67074219 -15.953125 3.65398437 -15.15625 3.63671875 C-12.47788314 4.08796534 -11.61485555 4.84854669 -10 7 C-9.39743266 10.95972822 -9.62008952 12.4776231 -12 15.75 C-12.99 16.86375 -12.99 16.86375 -14 18 C-14 18.66 -14 19.32 -14 20 C-13.34 20 -12.68 20 -12 20 C-10.62689293 21.29233607 -9.28965176 22.62437146 -8 24 C-6.98498002 22.13308826 -5.98857921 20.25604656 -5 18.375 C-4.443125 17.33085937 -3.88625 16.28671875 -3.3125 15.2109375 C-1.90091716 11.75760092 -1.3406649 9.67785358 -2 6 C-6.99205231 1.79713243 -13.68087801 1.24807894 -20 1 C-24.51023356 1.65980428 -28.59980358 2.74280102 -33 4 C-33.66 7.96 -34.32 11.92 -35 16 C-39 12 -39 12 -39.5625 8.625 C-38.84878854 4.02552615 -37.33916821 2.19076073 -34 -1 C-23.86397314 -6.45786062 -10.01142851 -5.00571425 0 0 Z M-21 9 C-19.88145414 12.72614153 -19.88145414 12.72614153 -17 15 C-14.7226499 12.18490007 -14.7226499 12.18490007 -15 9 C-18.04913228 7.98888907 -18.04913228 7.98888907 -21 9 Z " fill="#1F889B" transform="translate(331,230)"/>
<path d="M0 0 C8.91 0 17.82 0 27 0 C27 1.65 27 3.3 27 5 C20.73 5 14.46 5 8 5 C8.21188497 12.49948928 8.21188497 12.49948928 11.0625 15.5 C12.0215625 16.2425 12.0215625 16.2425 13 17 C11.71034824 18.37562854 10.37310707 19.70766393 9 21 C8.34 21 7.68 21 7 21 C7 24.63 7 28.26 7 32 C7.66 32.33 8.32 32.66 9 33 C8 34 8 34 4.4375 34.0625 C3.303125 34.041875 2.16875 34.02125 1 34 C-0.15792475 30.3298994 -0.11388663 26.87724396 -0.09765625 23.046875 C-0.0962413 22.38665344 -0.09482635 21.72643188 -0.09336853 21.04620361 C-0.08779245 18.94742206 -0.07524447 16.84874905 -0.0625 14.75 C-0.0574819 13.32291821 -0.05291954 11.89583475 -0.04882812 10.46875 C-0.03868377 6.97909168 -0.01910401 3.48966668 0 0 Z " fill="#39F9CC" transform="translate(114,237)"/>
<path d="M0 0 C0.99 0.495 0.99 0.495 2 1 C2 5.29 2 9.58 2 14 C6.62 14 11.24 14 16 14 C16 9.38 16 4.76 16 0 C19.3 0 22.6 0 26 0 C27.20587804 3.61763412 27.14332385 6.9301055 27.1328125 10.6953125 C27.13424759 11.81738602 27.13424759 11.81738602 27.13571167 12.96212769 C27.13639143 14.54067062 27.13455137 16.11921636 27.13037109 17.69775391 C27.1250049 20.12278455 27.13033064 22.54763125 27.13671875 24.97265625 C27.13605823 26.50520874 27.1347776 28.03776112 27.1328125 29.5703125 C27.13483673 30.29944855 27.13686096 31.02858459 27.13894653 31.77981567 C27.1149618 36.8850382 27.1149618 36.8850382 26 38 C22.66381769 38.14257189 19.34024394 38.04228157 16 38 C16 33.38 16 28.76 16 24 C11.38 24 6.76 24 2 24 C2 28.29 2 32.58 2 37 C1.67 37 1.34 37 1 37 C1 32.38 1 27.76 1 23 C6.61 23 12.22 23 18 23 C18 27.29 18 31.58 18 36 C19.98 36 21.96 36 24 36 C24 24.78 24 13.56 24 2 C22.02 2 20.04 2 18 2 C18.01160156 2.92683594 18.02320313 3.85367188 18.03515625 4.80859375 C18.04417969 6.00613281 18.05320312 7.20367187 18.0625 8.4375 C18.07410156 9.63246094 18.08570313 10.82742187 18.09765625 12.05859375 C18 15 18 15 17 16 C14.3013095 16.07325436 11.63497444 16.09222351 8.9375 16.0625 C6.318125 16.041875 3.69875 16.02125 1 16 C0.67 10.72 0.34 5.44 0 0 Z " fill="#258E9D" transform="translate(259,235)"/>
<path d="M0 0 C1.98 0 3.96 0 6 0 C6 11.55 6 23.1 6 35 C3.69 35 1.38 35 -1 35 C-1 30.05 -1 25.1 -1 20 C-2.32 20 -3.64 20 -5 20 C-5.12375 19.195625 -5.2475 18.39125 -5.375 17.5625 C-5.58125 16.716875 -5.7875 15.87125 -6 15 C-6.66 14.67 -7.32 14.34 -8 14 C-5.36 13.67 -2.72 13.34 0 13 C0 8.71 0 4.42 0 0 Z " fill="#3DFDCD" transform="translate(97,237)"/>
<path d="M0 0 C3.16719629 -0.08159761 6.33225152 -0.14078461 9.5 -0.1875 C10.386875 -0.21263672 11.27375 -0.23777344 12.1875 -0.26367188 C18.18326702 -0.32980166 22.51504238 0.55868125 28 3 C28 5.97 28 8.94 28 12 C26.68 12.33 25.36 12.66 24 13 C24.66 14.98 25.32 16.96 26 19 C23 20 23 20 19.8125 18.5625 C18.884375 18.046875 17.95625 17.53125 17 17 C17 16.01 17 15.02 17 14 C17.99 13.34 18.98 12.68 20 12 C20.72965366 9.43717258 20.72965366 9.43717258 21 7 C17.99221479 5.99740493 15.46179353 5.69685358 12.3125 5.4375 C11.31863281 5.35371094 10.32476562 5.26992187 9.30078125 5.18359375 C8.16189453 5.09271484 8.16189453 5.09271484 7 5 C7 5.66 7 6.32 7 7 C5.68 7 4.36 7 3 7 C3 8.32 3 9.64 3 11 C2.01 11 1.02 11 0 11 C0 7.37 0 3.74 0 0 Z " fill="#0698E7" transform="translate(383,237)"/>
<path d="M0 0 C3.3 0 6.6 0 10 0 C10 0.33 10 0.66 10 1 C7.03 1 4.06 1 1 1 C1 12.88 1 24.76 1 37 C3.64 37 6.28 37 9 37 C9 32.05 9 27.1 9 22 C14.61 22 20.22 22 26 22 C26 26.95 26 31.9 26 37 C28.31 37 30.62 37 33 37 C33 25.45 33 13.9 33 2 C31.02 2 29.04 2 27 2 C27 6.29 27 10.58 27 15 C26.34 15 25.68 15 25 15 C25 10.05 25 5.1 25 0 C28.3 0 31.6 0 35 0 C35 12.54 35 25.08 35 38 C31.7 38 28.4 38 25 38 C23.4543243 33.36297289 23.94264372 28.87528349 24 24 C19.38 24 14.76 24 10 24 C10 28.62 10 33.24 10 38 C6.7 38 3.4 38 0 38 C0 25.46 0 12.92 0 0 Z " fill="#4DC8AC" transform="translate(70,235)"/>
<path d="M0 0 C1.98 0 3.96 0 6 0 C6 11.22 6 22.44 6 34 C4.02 34 2.04 34 0 34 C0 29.71 0 25.42 0 21 C-4.455 20.01 -4.455 20.01 -9 19 C-7 16 -7 16 -1 14 C-0.67 9.38 -0.34 4.76 0 0 Z " fill="#14CADE" transform="translate(277,237)"/>
<path d="M0 0 C2.57340449 2.21486274 3.53029818 3.61814693 4 7 C4.03888349 9.33300933 4.0448635 11.66709801 4 14 C3.34 14 2.68 14 2 14 C1.6596875 12.3603125 1.6596875 12.3603125 1.3125 10.6875 C-0.22417802 6.37016652 -1.0061776 5.93826066 -5 4 C-14.34272503 1.28350115 -21.76485357 2.36138673 -31 5 C-31.66 8.96 -32.32 12.92 -33 17 C-37 13 -37 13 -37.5625 9.625 C-36.84878854 5.02552615 -35.33916821 3.19076073 -32 0 C-22.69191861 -5.01204383 -9.44506792 -4.28199908 0 0 Z " fill="#2C9C97" transform="translate(329,229)"/>
<path d="M0 0 C1.66666667 1.66666667 3.33333333 3.33333333 5 5 C5.598125 5.556875 6.19625 6.11375 6.8125 6.6875 C8 8 8 8 8 10 C8.66 10 9.32 10 10 10 C12.1875 12.1875 12.1875 12.1875 14 15 C13.8125 17.625 13.8125 17.625 13 20 C12.67 20.99 12.34 21.98 12 23 C11.34 23 10.68 23 10 23 C9.7525 23.928125 9.505 24.85625 9.25 25.8125 C7.93545755 29.16458325 7.02036616 30.1877803 4 32 C1.03595495 29.19195732 -1.44499019 26.81684226 -3 23 C-3.66 23 -4.32 23 -5 23 C-5 22.34 -5 21.68 -5 21 C-5.66 21 -6.32 21 -7 21 C-8.38938077 19.03852126 -9.7260411 17.03833424 -11 15 C-10.01 15.33 -9.02 15.66 -8 16 C-7.67 14.68 -7.34 13.36 -7 12 C-6.38511719 12.68707031 -5.77023437 13.37414062 -5.13671875 14.08203125 C-4.32847656 14.98308594 -3.52023437 15.88414062 -2.6875 16.8125 C-1.88699219 17.70582031 -1.08648437 18.59914063 -0.26171875 19.51953125 C1.45224581 21.39926786 3.17877604 23.22592747 5 25 C6.88391785 21.73454239 7.49287967 18.71888239 8 15 C7.34 15 6.68 15 6 15 C1 9.52380952 1 9.52380952 1 7 C0.34 7 -0.32 7 -1 7 C-1.33 6.01 -1.66 5.02 -2 4 C-1.34 4 -0.68 4 0 4 C0 2.68 0 1.36 0 0 Z " fill="#166FA2" transform="translate(325,258)"/>
<path d="M0 0 C0.99 0 1.98 0 3 0 C3.33 0.99 3.66 1.98 4 3 C5.32 2.34 6.64 1.68 8 1 C8.02721176 2.89575251 8.04649136 4.79161979 8.0625 6.6875 C8.07410156 7.74324219 8.08570313 8.79898438 8.09765625 9.88671875 C8.00865425 12.72410262 7.64939838 15.2438919 7 18 C7.66 18 8.32 18 9 18 C8.67 23.28 8.34 28.56 8 34 C5.69 34 3.38 34 1 34 C0.81548975 18.25512528 0.81548975 18.25512528 2 11 C1.34 11 0.68 11 0 11 C0 7.37 0 3.74 0 0 Z " fill="#1BD1DE" transform="translate(251,237)"/>
<path d="M0 0 C2.31 0 4.62 0 7 0 C7 8.58 7 17.16 7 26 C7.66 26.33 8.32 26.66 9 27 C8.67 29.31 8.34 31.62 8 34 C5.83125748 33.49396008 4.00032373 33.00016187 2 32 C-0.63051537 25.51568764 -0.22703084 18.96527903 -0.125 12.0625 C-0.11597656 10.90169922 -0.10695313 9.74089844 -0.09765625 8.54492188 C-0.07421162 5.69639892 -0.04139522 2.84830922 0 0 Z " fill="#09A3DF" transform="translate(340,236)"/>
<path d="M0 0 C0.33 0 0.66 0 1 0 C1.02835937 0.57105469 1.05671875 1.14210937 1.0859375 1.73046875 C2.01153183 9.59802059 5.78623762 14.22605521 10.6875 20.1171875 C12.52821815 22.41186654 13.86043566 24.31943388 15 27 C15.66 27 16.32 27 17 27 C20.40027839 30.50331713 21.54961229 33.15833214 22 38 C20.68 37.34 19.36 36.68 18 36 C18 35.34 18 34.68 18 34 C16.515 33.505 16.515 33.505 15 33 C12.3125 30.5625 12.3125 30.5625 10 28 C10 27.34 10 26.68 10 26 C6.99740483 25.66781808 6.99740483 25.66781808 5.3125 27.5 C4.879375 27.995 4.44625 28.49 4 29 C4 27.35 4 25.7 4 24 C3.34 23.67 2.68 23.34 2 23 C2.66 22.34 3.32 21.68 4 21 C3.4225 20.34 2.845 19.68 2.25 19 C-0.30830011 15.58893319 -2.61598688 12.05863969 -4 8 C-3.67 7.01 -3.34 6.02 -3 5 C-2.01 6.485 -2.01 6.485 -1 8 C-0.67 5.36 -0.34 2.72 0 0 Z " fill="#1F7A8F" transform="translate(296,237)"/>
<path d="M0 0 C0.66 0 1.32 0 2 0 C3.37958057 3.83216824 2.63486839 7.04970777 2 11 C1.8942146 14.93259854 1.8942146 14.93259854 2.5625 18.5 C2.94146338 21.53170708 3.01098903 23.19169713 2 26 C1.071875 25.79375 0.14375 25.5875 -0.8125 25.375 C-4.15173402 24.63307034 -4.15173402 24.63307034 -7 27 C-10.1015625 27.23046875 -10.1015625 27.23046875 -13.625 27.1875 C-14.79289062 27.18105469 -15.96078125 27.17460937 -17.1640625 27.16796875 C-20 27 -20 27 -21 26 C-21.14115161 23.32941149 -21.04247107 20.67567762 -21 18 C-20.67 18 -20.34 18 -20 18 C-20 20.31 -20 22.62 -20 25 C-18.20793453 24.85915204 -16.41635083 24.71216299 -14.625 24.5625 C-13.62726563 24.48128906 -12.62953125 24.40007812 -11.6015625 24.31640625 C-9.02072387 24.15034374 -9.02072387 24.15034374 -7 23 C-7 21.68 -7 20.36 -7 19 C-9.64 18.67 -12.28 18.34 -15 18 C-15 17.67 -15 17.34 -15 17 C-13.329375 17.061875 -13.329375 17.061875 -11.625 17.125 C-7.95633975 17.41121859 -7.95633975 17.41121859 -6 15 C-5.01 15 -4.02 15 -3 15 C-3.33 13.35 -3.66 11.7 -4 10 C-2.68 9.67 -1.36 9.34 0 9 C0 6.03 0 3.06 0 0 Z " fill="#0693E4" transform="translate(411,240)"/>
<path d="M0 0 C1.32 0 2.64 0 4 0 C4 0.66 4 1.32 4 2 C4.66 2 5.32 2 6 2 C6.66 3.98 7.32 5.96 8 8 C12.29 8.33 16.58 8.66 21 9 C21.33 8.34 21.66 7.68 22 7 C24 6.3125 24 6.3125 26 6 C27 7 27 7 27.125 9.5 C27 12 27 12 26 13 C24.07332493 13.08748207 22.14348139 13.10697334 20.21484375 13.09765625 C19.04501953 13.09443359 17.87519531 13.09121094 16.66992188 13.08789062 C14.82237305 13.07532227 14.82237305 13.07532227 12.9375 13.0625 C11.08415039 13.05573242 11.08415039 13.05573242 9.19335938 13.04882812 C6.12888587 13.03699618 3.06443707 13.01906008 0 13 C0 8.71 0 4.42 0 0 Z " fill="#0493E6" transform="translate(383,258)"/>
<path d="M0 0 C0.8146875 0.00257813 1.629375 0.00515625 2.46875 0.0078125 C3.2834375 0.00523437 4.098125 0.00265625 4.9375 0 C6.96875 0.1328125 6.96875 0.1328125 7.96875 1.1328125 C8.05642112 3.20543326 8.07570873 5.28101544 8.06640625 7.35546875 C8.06318359 8.61552734 8.05996094 9.87558594 8.05664062 11.17382812 C8.04828403 12.51432359 8.03981907 13.85481838 8.03125 15.1953125 C8.0262366 16.53971192 8.02167342 17.8841131 8.01757812 19.22851562 C8.00574488 22.52999191 7.98925971 25.83138053 7.96875 29.1328125 C9.17273438 29.10960937 10.37671875 29.08640625 11.6171875 29.0625 C13.19270215 29.04374387 14.76822348 29.02554351 16.34375 29.0078125 C17.1378125 28.99105469 17.931875 28.97429687 18.75 28.95703125 C20.82367015 28.93945777 22.89758241 29.02946082 24.96875 29.1328125 C26.96875 31.1328125 26.96875 31.1328125 27.09375 34.2578125 C27.0525 35.2065625 27.01125 36.1553125 26.96875 37.1328125 C26.63875 37.1328125 26.30875 37.1328125 25.96875 37.1328125 C25.47375 34.6578125 25.47375 34.6578125 24.96875 32.1328125 C18.69875 31.8028125 12.42875 31.4728125 5.96875 31.1328125 C5.96875 21.5628125 5.96875 11.9928125 5.96875 2.1328125 C3.65875 2.1328125 1.34875 2.1328125 -1.03125 2.1328125 C-1.01964844 3.05578125 -1.00804687 3.97875 -0.99609375 4.9296875 C-0.9193301 16.02751809 -1.39561467 27.05459673 -2.03125 38.1328125 C-2.36125 38.1328125 -2.69125 38.1328125 -3.03125 38.1328125 C-3.05589928 32.88175808 -3.07408568 27.63073705 -3.08618164 22.37963867 C-3.09122218 20.59187229 -3.09805454 18.80411005 -3.10668945 17.01635742 C-3.1187673 14.45230082 -3.12448094 11.88829853 -3.12890625 9.32421875 C-3.13406754 8.5200502 -3.13922882 7.71588165 -3.14454651 6.88734436 C-3.14474215 4.96879535 -3.09326983 3.05035882 -3.03125 1.1328125 C-2.03125 0.1328125 -2.03125 0.1328125 0 0 Z " fill="#2E928F" transform="translate(191.03125,234.8671875)"/>
<path d="M0 0 C1.98 0 3.96 0 6 0 C6.02891949 4.29165262 6.04677118 8.58328036 6.0625 12.875 C6.07087891 14.09832031 6.07925781 15.32164062 6.08789062 16.58203125 C6.09111328 17.74863281 6.09433594 18.91523438 6.09765625 20.1171875 C6.10289307 21.19597168 6.10812988 22.27475586 6.11352539 23.38623047 C6 26 6 26 5 28 C2.69 27.67 0.38 27.34 -2 27 C-1.84152588 26.28432861 -1.68305176 25.56865723 -1.51977539 24.83129883 C-1.01543043 22.08405198 -0.79773833 19.4876077 -0.68359375 16.69921875 C-0.64169922 15.72275391 -0.59980469 14.74628906 -0.55664062 13.74023438 C-0.51732422 12.73283203 -0.47800781 11.72542969 -0.4375 10.6875 C-0.37272461 9.14739258 -0.37272461 9.14739258 -0.30664062 7.57617188 C-0.20093175 5.05090431 -0.09883532 2.52554438 0 0 Z " fill="#059AE5" transform="translate(365,237)"/>
<path d="M0 0 C0.99 0 1.98 0 3 0 C3.17835515 4.54805635 2.99785435 7.8794254 1 12 C1.99 12.33 2.98 12.66 4 13 C3.34 13 2.68 13 2 13 C1.67 13.99 1.34 14.98 1 16 C-0.65 16.33 -2.3 16.66 -4 17 C-4.33 19.31 -4.66 21.62 -5 24 C-7.31 24 -9.62 24 -12 24 C-11.67 22.35 -11.34 20.7 -11 19 C-10.34 19 -9.68 19 -9 19 C-8.89042969 18.38511719 -8.78085938 17.77023437 -8.66796875 17.13671875 C-8.50941406 16.32847656 -8.35085937 15.52023437 -8.1875 14.6875 C-8.03667969 13.88699219 -7.88585937 13.08648437 -7.73046875 12.26171875 C-6.91421341 9.73438268 -5.94751978 8.74868922 -4 7 C-3.649375 6.29875 -3.29875 5.5975 -2.9375 4.875 C-2 3 -2 3 0 2 C0 1.34 0 0.68 0 0 Z " fill="#33F2CE" transform="translate(158,247)"/>
<path d="M0 0 C1.23556641 0.01740234 1.23556641 0.01740234 2.49609375 0.03515625 C3.32238281 0.04417969 4.14867187 0.05320313 5 0.0625 C5.63808594 0.07410156 6.27617187 0.08570313 6.93359375 0.09765625 C7.7611525 2.96917563 8.03366793 5.45066751 7.9609375 8.43359375 C7.94869141 9.25085938 7.93644531 10.068125 7.92382812 10.91015625 C7.88883083 12.6107656 7.84980517 14.31129709 7.80664062 16.01171875 C7.74256933 20.80575924 8.06098916 24.58871813 9.93359375 29.09765625 C9.27359375 29.09765625 8.61359375 29.09765625 7.93359375 29.09765625 C7.93359375 28.43765625 7.93359375 27.77765625 7.93359375 27.09765625 C7.27359375 27.09765625 6.61359375 27.09765625 5.93359375 27.09765625 C3.25360253 19.05768258 5.20652211 9.38107953 5.93359375 1.09765625 C3.62359375 1.09765625 1.31359375 1.09765625 -1.06640625 1.09765625 C-0.9266017 5.11872274 -0.77848306 9.13944235 -0.62890625 13.16015625 C-0.58958984 14.29388672 -0.55027344 15.42761719 -0.50976562 16.59570312 C-0.29868288 22.1650402 -0.01545193 27.60276151 0.93359375 33.09765625 C3.57359375 33.42765625 6.21359375 33.75765625 8.93359375 34.09765625 C8.60359375 35.08765625 8.27359375 36.07765625 7.93359375 37.09765625 C8.59359375 37.42765625 9.25359375 37.75765625 9.93359375 38.09765625 C6.14781213 37.83353195 4.22043291 37.3193047 1.18359375 34.97265625 C-4.01207373 28.33374781 -3.34529634 20.79384459 -3.25390625 12.72265625 C-3.25326172 11.61792969 -3.25261719 10.51320312 -3.25195312 9.375 C-3.20089928 0.15127123 -3.20089928 0.15127123 0 0 Z " fill="#1185B1" transform="translate(341.06640625,234.90234375)"/>
<path d="M0 0 C0.66 0 1.32 0 2 0 C2 0.99 2 1.98 2 3 C2.66 2.67 3.32 2.34 4 2 C4 9.26 4 16.52 4 24 C2.02 24 0.04 24 -2 24 C-2.05787784 20.37506666 -2.0935542 16.75025143 -2.125 13.125 C-2.14175781 12.09246094 -2.15851563 11.05992187 -2.17578125 9.99609375 C-2.18222656 9.00996094 -2.18867188 8.02382812 -2.1953125 7.0078125 C-2.20578613 6.09660645 -2.21625977 5.18540039 -2.22705078 4.24658203 C-2 2 -2 2 0 0 Z " fill="#20D9DB" transform="translate(229,247)"/>
<path d="M0 0 C3.3 0 6.6 0 10 0 C10 0.33 10 0.66 10 1 C7.03 1 4.06 1 1 1 C1 12.88 1 24.76 1 37 C3.64 37 6.28 37 9 37 C9 32.05 9 27.1 9 22 C14.61 22 20.22 22 26 22 C26 27.28 26 32.56 26 38 C25.34 37.67 24.68 37.34 24 37 C24 32.71 24 28.42 24 24 C19.38 24 14.76 24 10 24 C10 28.62 10 33.24 10 38 C6.7 38 3.4 38 0 38 C0 25.46 0 12.92 0 0 Z " fill="#3BAA92" transform="translate(70,235)"/>
<path d="M0 0 C5.28 0 10.56 0 16 0 C16 2.64 16 5.28 16 8 C10.72 8 5.44 8 0 8 C0.33 7.34 0.66 6.68 1 6 C1.66 6 2.32 6 3 6 C3 5.01 3 4.02 3 3 C2.01 2.01 1.02 1.02 0 0 Z " fill="#3ED7BA" transform="translate(123,250)"/>
<path d="M0 0 C0.33 0 0.66 0 1 0 C1 5.94 1 11.88 1 18 C11.89 17.505 11.89 17.505 23 17 C23.33 16.34 23.66 15.68 24 15 C19.05 15 14.1 15 9 15 C9 14.34 9 13.68 9 13 C11.97922593 12.97316013 14.95821295 12.95323963 17.9375 12.9375 C19.21270508 12.92493164 19.21270508 12.92493164 20.51367188 12.91210938 C21.32255859 12.90888672 22.13144531 12.90566406 22.96484375 12.90234375 C23.7137085 12.89710693 24.46257324 12.89187012 25.23413086 12.88647461 C27 13 27 13 28 14 C28 15.98 28 17.96 28 20 C18.76 20 9.52 20 0 20 C0 13.4 0 6.8 0 0 Z " fill="#3CC7C4" transform="translate(189,253)"/>
<path d="M0 0 C3.3 0 6.6 0 10 0 C10.9892927 4.9943325 11.21614264 9.80486055 11.25 14.875 C11.270625 15.63941406 11.29125 16.40382812 11.3125 17.19140625 C11.35877308 24.00511752 10.07170125 29.49215112 5.625 34.875 C-0.03618371 39.457863 -4.97257122 39.24561887 -12 39 C-12 38.67 -12 38.34 -12 38 C-7.9472484 37.01751476 -4.16138263 36.91840426 0 37 C0 36.34 0 35.68 0 35 C1.98 34.505 1.98 34.505 4 34 C4 32.68 4 31.36 4 30 C4.99 30 5.98 30 7 30 C7.97299662 26.68973391 8.19346782 23.58290092 8.31640625 20.140625 C8.35830078 19.02558594 8.40019531 17.91054687 8.44335938 16.76171875 C8.48267578 15.60285156 8.52199219 14.44398438 8.5625 13.25 C8.60568359 12.07566406 8.64886719 10.90132812 8.69335938 9.69140625 C8.79934794 6.79438549 8.90141638 3.89728065 9 1 C6.03 1 3.06 1 0 1 C0 0.67 0 0.34 0 0 Z " fill="#14648F" transform="translate(363,235)"/>
<path d="M0 0 C2.97 0 5.94 0 9 0 C9 4.62 9 9.24 9 14 C8.67 14 8.34 14 8 14 C8 9.71 8 5.42 8 1 C7.34 1 6.68 1 6 1 C5.67 1.99 5.34 2.98 5 4 C4.34 3.67 3.68 3.34 3 3 C2.67 13.89 2.34 24.78 2 36 C1.34 36 0.68 36 0 36 C0 24.12 0 12.24 0 0 Z " fill="#4DEBC2" transform="translate(71,236)"/>
<path d="M0 0 C2.05859375 -0.3984375 2.05859375 -0.3984375 4.4375 -0.375 C5.21996094 -0.38273438 6.00242187 -0.39046875 6.80859375 -0.3984375 C9.49612289 0.09020416 10.38614618 0.82436162 12 3 C12.42478586 7.07794425 12.31282587 8.53076119 10 12 C8.68 12 7.36 12 6 12 C6.33 9.69 6.66 7.38 7 5 C4.69 5 2.38 5 0 5 C0 6.32 0 7.64 0 9 C-0.66 9 -1.32 9 -2 9 C-2.25 3.375 -2.25 3.375 0 0 Z " fill="#28B4A6" transform="translate(309,234)"/>
<path d="M0 0 C1.55074219 -0.0309375 1.55074219 -0.0309375 3.1328125 -0.0625 C9.18575783 -0.09338237 13.52054544 0.36799896 18.875 3.25 C18.875 3.91 18.875 4.57 18.875 5.25 C14.875 4.25 14.875 4.25 13.05957031 3.73461914 C10.56934539 3.18219441 8.22048493 3.03731625 5.671875 2.93359375 C4.78854492 2.89548584 3.90521484 2.85737793 2.99511719 2.81811523 C1.88297852 2.77501221 0.77083984 2.73190918 -0.375 2.6875 C-3.9225 2.543125 -7.47 2.39875 -11.125 2.25 C-11.125 12.48 -11.125 22.71 -11.125 33.25 C-11.455 33.25 -11.785 33.25 -12.125 33.25 C-12.14965392 28.71102295 -12.16783789 24.17208457 -12.17993164 19.63305664 C-12.1849714 18.08780234 -12.1918032 16.54255284 -12.20043945 14.99731445 C-12.21252076 12.78074971 -12.21823173 10.56424782 -12.22265625 8.34765625 C-12.22781754 7.6528566 -12.23297882 6.95805695 -12.23829651 6.24220276 C-12.23849277 4.5777067 -12.18689129 2.91334501 -12.125 1.25 C-9.67319956 -1.20180044 -3.28977247 0.01604767 0 0 Z " fill="#116598" transform="translate(392.125,234.75)"/>
<path d="M0 0 C1.32 0.66 2.64 1.32 4 2 C4 4 4 4 2.0625 6 C1.61648438 6.42667969 1.17046875 6.85335938 0.7109375 7.29296875 C-3.03276802 11.028127 -6.4823438 15.05317442 -10 19 C-10 16 -10 16 -9 14 C-9.99 13.67 -10.98 13.34 -12 13 C-10.71937515 11.2925002 -9.38232443 9.62626404 -8 8 C-7.34 8 -6.68 8 -6 8 C-5.7525 7.4225 -5.505 6.845 -5.25 6.25 C-3.83316683 3.6997003 -2.12372463 1.98214299 0 0 Z " fill="#1979A0" transform="translate(310,269)"/>
<path d="M0 0 C0.33 0 0.66 0 1 0 C1.16435547 1.01320312 1.16435547 1.01320312 1.33203125 2.046875 C1.49058594 2.93890625 1.64914062 3.8309375 1.8125 4.75 C1.96332031 5.63171875 2.11414063 6.5134375 2.26953125 7.421875 C3.06096607 10.21517436 4.17720614 11.77266965 6 14 C7.32766706 16.95037123 8.29858159 19.84361714 9 23 C8.01 23 7.02 23 6 23 C6 22.34 6 21.68 6 21 C5.01 20.67 4.02 20.34 3 20 C1.4296875 17.890625 1.4296875 17.890625 -0.125 15.25 C-0.64320313 14.38890625 -1.16140625 13.5278125 -1.6953125 12.640625 C-2.9756446 10.04929416 -3.58024266 7.84615952 -4 5 C-3.01 5.99 -2.02 6.98 -1 8 C-0.67 5.36 -0.34 2.72 0 0 Z " fill="#25B4C2" transform="translate(296,237)"/>
<path d="M0 0 C1.43088528 2.86177057 0.59991697 4.93375773 0 8 C0.66 8 1.32 8 2 8 C2.33 6.68 2.66 5.36 3 4 C3.99 5.65 4.98 7.3 6 9 C6.66 8.67 7.32 8.34 8 8 C8 8.99 8 9.98 8 11 C8.99 11.33 9.98 11.66 11 12 C11 14.62113708 10.68707555 16.50935112 10 19 C5.25199243 16.62599621 1.93520283 13.37493839 -1 9 C-2 5.75 -2 5.75 -2 3 C-1.34 2.01 -0.68 1.02 0 0 Z " fill="#1C8895" transform="translate(307,235)"/>
<path d="M0 0 C-1.258125 0.391875 -2.51625 0.78375 -3.8125 1.1875 C-6.61043687 2.26020725 -7.88279864 2.87145657 -9.9375 5.125 C-11.38282696 9.03588472 -11.73827406 12.85751015 -12 17 C-15.01264559 14.64637063 -15.92389342 13.45663946 -16.5625 9.625 C-15.83991942 4.96836961 -14.49977279 3.12745654 -11 0 C-6.89748984 -1.07960794 -4.02541412 -1.13627663 0 0 Z " fill="#3AC9BB" transform="translate(308,229)"/>
<path d="M0 0 C0 0.66 0 1.32 0 2 C0.99 2 1.98 2 3 2 C3 2.66 3 3.32 3 4 C2.26136719 4.03738281 1.52273438 4.07476562 0.76171875 4.11328125 C-6.48984667 4.5832048 -13.06872349 5.83056503 -20 8 C-17.375 4.125 -17.375 4.125 -14 3 C-15.65 3 -17.3 3 -19 3 C-13.24736889 -0.83508741 -6.68199149 -0.11884965 0 0 Z " fill="#34CBBA" transform="translate(318,226)"/>
<path d="M0 0 C2 1.55859375 2 1.55859375 4 4 C4.3125 7.34765625 4.3125 7.34765625 4 11.0625 C3.87625 12.90521484 3.87625 12.90521484 3.75 14.78515625 C3 18 3 18 1.140625 19.921875 C-1.67111121 21.33800491 -3.89705516 21.21156442 -7 21 C-6.01 20.67 -5.02 20.34 -4 20 C-4.33 19.01 -4.66 18.02 -5 17 C-3.35 16.67 -1.7 16.34 0 16 C0.97875316 13.35736647 1.14144022 12.32708051 0 9.6875 C-1.31081719 6.16467879 -0.71277118 3.63513303 0 0 Z " fill="#2AEBD0" transform="translate(169,242)"/>
<path d="M0 0 C1.28132812 0.00902344 2.56265625 0.01804687 3.8828125 0.02734375 C4.87023437 0.03894531 5.85765625 0.05054688 6.875 0.0625 C6.875 1.7125 6.875 3.3625 6.875 5.0625 C1.265 4.7325 -4.345 4.4025 -10.125 4.0625 C-9.795 3.0725 -9.465 2.0825 -9.125 1.0625 C-6.12186252 -0.43906874 -3.33432478 -0.03031204 0 0 Z " fill="#3AF7CB" transform="translate(134.125,266.9375)"/>
<path d="M0 0 C2.97 0 5.94 0 9 0 C9.80005168 3.20020671 10.10476031 5.16081698 10.02734375 8.3359375 C10.01509766 9.15320313 10.00285156 9.97046875 9.99023438 10.8125 C9.95523708 12.51310935 9.91621142 14.21364084 9.87304688 15.9140625 C9.80897558 20.70810299 10.12739541 24.49106188 12 29 C11.34 29 10.68 29 10 29 C10 28.34 10 27.68 10 27 C9.34 27 8.68 27 8 27 C5.32000878 18.96002633 7.27292836 9.28342328 8 1 C3.545 1.495 3.545 1.495 -1 2 C-0.67 1.34 -0.34 0.68 0 0 Z " fill="#14748F" transform="translate(339,235)"/>
<path d="M0 0 C1.32 0.33 2.64 0.66 4 1 C4.87324262 3.44507934 5.10151327 4.67700322 4.3125 7.1875 C3 9 3 9 0.875 9.75 C-0.053125 9.87375 -0.053125 9.87375 -1 10 C-1 10.66 -1 11.32 -1 12 C-2.98 12.33 -4.96 12.66 -7 13 C-7 5 -7 5 -4 2 C-4.33 3.65 -4.66 5.3 -5 7 C-3.02 7 -1.04 7 1 7 C0.67 4.69 0.34 2.38 0 0 Z " fill="#33CAB6" transform="translate(166,250)"/>
<path d="M0 0 C10.89 0 21.78 0 33 0 C33 1.98 33 3.96 33 6 C32.67 6 32.34 6 32 6 C32 4.35 32 2.7 32 1 C21.77 1 11.54 1 1 1 C1 2.32 1 3.64 1 5 C4.63 5 8.26 5 12 5 C12.33 5.99 12.66 6.98 13 8 C8.71 7.67 4.42 7.34 0 7 C0 4.69 0 2.38 0 0 Z " fill="#36CAC7" transform="translate(213,236)"/>
<path d="M0 0 C2.97 0.33 5.94 0.66 9 1 C9.66 3.31 10.32 5.62 11 8 C7.3924497 10.40503353 5.65163611 10.2396541 1.375 10.1875 C0.20710938 10.18105469 -0.96078125 10.17460937 -2.1640625 10.16796875 C-5 10 -5 10 -6 9 C-6.14115161 6.32941149 -6.04247107 3.67567762 -6 1 C-5.67 1 -5.34 1 -5 1 C-5 3.31 -5 5.62 -5 8 C-3.20793453 7.85915204 -1.41635083 7.71216299 0.375 7.5625 C1.37273437 7.48128906 2.37046875 7.40007812 3.3984375 7.31640625 C5.97927613 7.15034374 5.97927613 7.15034374 8 6 C8 4.68 8 3.36 8 2 C5.36 1.67 2.72 1.34 0 1 C0 0.67 0 0.34 0 0 Z " fill="#10588E" transform="translate(396,257)"/>
<path d="M0 0 C0.66 0 1.32 0 2 0 C2.66 0.99 3.32 1.98 4 3 C6.05925139 3.72382467 6.05925139 3.72382467 8 4 C7.34 5.98 6.68 7.96 6 10 C4.68 10 3.36 10 2 10 C0.515625 8.46875 0.515625 8.46875 -0.75 6.5 C-1.17796875 5.8503125 -1.6059375 5.200625 -2.046875 4.53125 C-2.36140625 4.0259375 -2.6759375 3.520625 -3 3 C-2.67 2.34 -2.34 1.68 -2 1 C-1.67 1.33 -1.34 1.66 -1 2 C-0.67 1.34 -0.34 0.68 0 0 Z " fill="#1A6E93" transform="translate(293,279)"/>
<path d="M0 0 C3.74960517 0.08166109 3.74960517 0.08166109 6.0625 2.25 C7.0625 4.375 7.0625 4.375 7.0625 6.375 C2.4425 6.375 -2.1775 6.375 -6.9375 6.375 C-5.9475 6.045 -4.9575 5.715 -3.9375 5.375 C-3.9375 4.715 -3.9375 4.055 -3.9375 3.375 C-4.5975 3.045 -5.2575 2.715 -5.9375 2.375 C-3.9375 0.375 -3.9375 0.375 0 0 Z " fill="#0792DC" transform="translate(396.9375,251.625)"/>
<path d="M0 0 C2.54660112 2.54660112 3.6163844 5.16883287 5.125 8.4375 C5.66382813 9.59121094 6.20265625 10.74492187 6.7578125 11.93359375 C8 15 8 15 8 18 C4.37 18 0.74 18 -3 18 C-3.66 16.02 -4.32 14.04 -5 12 C-4.34 12 -3.68 12 -3 12 C-2.67 13.65 -2.34 15.3 -2 17 C0.31 17 2.62 17 5 17 C3.15286032 11.79564346 3.15286032 11.79564346 0.8125 6.8125 C-0.23755451 4.47007071 -0.140882 2.53587598 0 0 Z " fill="#37A39D" transform="translate(178,255)"/>
<path d="M0 0 C0 1.65 0 3.3 0 5 C-1.45736087 5.19491452 -2.91594593 5.38069358 -4.375 5.5625 C-5.18710937 5.66691406 -5.99921875 5.77132813 -6.8359375 5.87890625 C-9 6 -9 6 -11 5 C-11 3 -11 3 -10 1.375 C-6.79914107 -0.82559052 -3.82106483 -0.18792122 0 0 Z " fill="#0598E5" transform="translate(360,267)"/>
<path d="M0 0 C1.65 0 3.3 0 5 0 C3.68 0.33 2.36 0.66 1 1 C1 2.65 1 4.3 1 6 C1.59538574 6.01458252 2.19077148 6.02916504 2.80419922 6.04418945 C5.49513051 6.11854344 8.18480333 6.21524187 10.875 6.3125 C11.81214844 6.33505859 12.74929687 6.35761719 13.71484375 6.38085938 C15.05869141 6.4340332 15.05869141 6.4340332 16.4296875 6.48828125 C17.25710449 6.51446533 18.08452148 6.54064941 18.93701172 6.56762695 C21 7 21 7 23 10 C22.625 12.6875 22.625 12.6875 22 15 C21.01 14.67 20.02 14.34 19 14 C19 12.35 19 10.7 19 9 C12.73 8.67 6.46 8.34 0 8 C0 5.36 0 2.72 0 0 Z " fill="#41A594" transform="translate(122,258)"/>
<path d="M0 0 C1.25 7.625 1.25 7.625 -1 11 C-3.5625 8.8125 -3.5625 8.8125 -6 6 C-5.9375 3.25 -5.9375 3.25 -5 1 C-3 0 -3 0 0 0 Z " fill="#168AB5" transform="translate(293,271)"/>
<path d="M0 0 C0.66 0 1.32 0 2 0 C3.37958057 3.83216824 2.63486839 7.04970777 2 11 C2 12.32 2 13.64 2 15 C0.68 15.33 -0.64 15.66 -2 16 C-2.66 14.02 -3.32 12.04 -4 10 C-2.68 9.67 -1.36 9.34 0 9 C0 6.03 0 3.06 0 0 Z " fill="#1072B1" transform="translate(411,240)"/>
<path d="M0 0 C2.66666667 2.66666667 5.33333333 5.33333333 8 8 C7.67 8.66 7.34 9.32 7 10 C6.34 9.67 5.68 9.34 5 9 C4.34 9.66 3.68 10.32 3 11 C2.34 9.68 1.68 8.36 1 7 C0.34 7 -0.32 7 -1 7 C-1.33 6.01 -1.66 5.02 -2 4 C-1.34 4 -0.68 4 0 4 C0 2.68 0 1.36 0 0 Z " fill="#136689" transform="translate(325,258)"/>
<path d="M0 0 C2.66053508 2.66053508 2.78483954 4.27055195 3 8 C1.68239933 11.80640195 0.93635691 13.52093367 -2.6875 15.375 C-3.450625 15.58125 -4.21375 15.7875 -5 16 C-4.34 14.02 -3.68 12.04 -3 10 C-2.01 10 -1.02 10 0 10 C0 6.7 0 3.4 0 0 Z " fill="#0F659D" transform="translate(413,256)"/>
<path d="M0 0 C2.93200474 2.85276137 5.64315404 5.65079784 8 9 C6.68 8.67 5.36 8.34 4 8 C4.33 8.99 4.66 9.98 5 11 C4.34 11 3.68 11 3 11 C3 10.34 3 9.68 3 9 C2.34 9 1.68 9 1 9 C-0.38938077 7.03852126 -1.7260411 5.03833424 -3 3 C-2.01 3.33 -1.02 3.66 0 4 C0 2.68 0 1.36 0 0 Z " fill="#156796" transform="translate(317,270)"/>
<path d="M0 0 C0.33 0 0.66 0 1 0 C3 5.625 3 5.625 3 9 C2.67 9.33 2.34 9.66 2 10 C1.84344973 11.48638992 1.74933057 12.97949127 1.68359375 14.47265625 C1.64169922 15.37177734 1.59980469 16.27089844 1.55664062 17.19726562 C1.51732422 18.14279297 1.47800781 19.08832031 1.4375 20.0625 C1.39431641 21.01189453 1.35113281 21.96128906 1.30664062 22.93945312 C1.20020724 25.29281353 1.09818992 27.64628354 1 30 C0.67 30 0.34 30 0 30 C0 20.1 0 10.2 0 0 Z " fill="#45F6CA" transform="translate(114,237)"/>
<path d="M0 0 C2.75449595 1.37724797 2.91182781 2.84380002 4 5.6875 C4.34546875 6.58597656 4.6909375 7.48445312 5.046875 8.41015625 C6.09374493 11.25472497 7.08720352 14.10947782 8 17 C6 17 6 17 4.5 15.875 C2.54647838 13.43309797 1.88706333 10.97799833 1 8 C0.67 7.34 0.34 6.68 0 6 C-0.039992 4.00039988 -0.04346799 1.99952758 0 0 Z " fill="#34AE9F" transform="translate(170,237)"/>
<path d="M0 0 C-0.54269531 0.18175781 -1.08539063 0.36351562 -1.64453125 0.55078125 C-2.71767578 0.92783203 -2.71767578 0.92783203 -3.8125 1.3125 C-4.87404297 1.67794922 -4.87404297 1.67794922 -5.95703125 2.05078125 C-8.14890927 3.06918729 -9.32798132 4.28965424 -11 6 C-11.66 6 -12.32 6 -13 6 C-13.33 6.66 -13.66 7.32 -14 8 C-14.21718696 5.32136078 -14.35440053 3.58371852 -12.9375 1.25 C-8.8742679 -1.37144007 -4.50096696 -1.30577503 0 0 Z " fill="#3DD9C4" transform="translate(308,229)"/>
<path d="M0 0 C2.3125 0.1875 2.3125 0.1875 5 1 C6.875 3.375 6.875 3.375 8 6 C7.67 6.99 7.34 7.98 7 9 C6.01 8.34 5.02 7.68 4 7 C4 6.34 4 5.68 4 5 C3.01 4.67 2.02 4.34 1 4 C0.3125 1.9375 0.3125 1.9375 0 0 Z " fill="#1A98C9" transform="translate(310,266)"/>
<path d="M0 0 C0.33 0 0.66 0 1 0 C1.33692785 1.60341555 1.66941093 3.20776555 2 4.8125 C2.185625 5.70582031 2.37125 6.59914062 2.5625 7.51953125 C3 10 3 10 3 13 C0.625 12.75 0.625 12.75 -2 12 C-3.375 10.125 -3.375 10.125 -4 8 C-3.67 7.01 -3.34 6.02 -3 5 C-2.01 6.485 -2.01 6.485 -1 8 C-0.67 5.36 -0.34 2.72 0 0 Z " fill="#248486" transform="translate(296,237)"/>
<path d="M0 0 C0 2.31 0 4.62 0 7 C-0.78375 6.95875 -1.5675 6.9175 -2.375 6.875 C-5.16116119 6.71271266 -5.16116119 6.71271266 -7 9 C-7 7.02 -7 5.04 -7 3 C-6.34 3 -5.68 3 -5 3 C-5 2.34 -5 1.68 -5 1 C-2 0 -2 0 0 0 Z " fill="#32D1B9" transform="translate(169,243)"/>
<path d="M0 0 C1.43088528 2.86177057 0.59991697 4.93375773 0 8 C0.66 8 1.32 8 2 8 C2.33 6.68 2.66 5.36 3 4 C4.83691257 7.78187881 5.15837626 9.94568308 4 14 C1.01861079 11.40084018 -0.78723197 9.70922676 -1.9375 5.875 C-2 3 -2 3 0 0 Z " fill="#238D87" transform="translate(307,235)"/>
<path d="M0 0 C1.9375 0.3125 1.9375 0.3125 4 1 C4.33 1.99 4.66 2.98 5 4 C5.66 4 6.32 4 7 4 C7 4.66 7 5.32 7 6 C6.01 6 5.02 6 4 6 C3.67 6.66 3.34 7.32 3 8 C1.5 6.8125 1.5 6.8125 0 5 C-0.1875 2.3125 -0.1875 2.3125 0 0 Z " fill="#1A8BA3" transform="translate(306,260)"/>
<path d="M0 0 C2 2 2 2 2.1953125 5.0390625 C2.17210937 6.22242188 2.14890625 7.40578125 2.125 8.625 C2.10695313 9.81351563 2.08890625 11.00203125 2.0703125 12.2265625 C2.04710937 13.14179688 2.02390625 14.05703125 2 15 C1.67 15 1.34 15 1 15 C1 11.04 1 7.08 1 3 C-1.475 4.485 -1.475 4.485 -4 6 C-4 4.68 -4 3.36 -4 2 C-4.99 1.67 -5.98 1.34 -7 1 C-3.625 0.375 -3.625 0.375 0 0 Z " fill="#2CC5CA" transform="translate(258,235)"/>
<path d="M0 0 C0.33 0.66 0.66 1.32 1 2 C1.66 2 2.32 2 3 2 C2.52797514 6.24822374 0.03344482 8.19989709 -3 11 C-2.34 9.35 -1.68 7.7 -1 6 C-1.99 5.67 -2.98 5.34 -4 5 C-2.68 3.35 -1.36 1.7 0 0 Z " fill="#12648B" transform="translate(302,277)"/>
<path d="M0 0 C2.475 0.495 2.475 0.495 5 1 C6.17571451 4.67410785 6.07366746 8.16929183 6 12 C5.34 12 4.68 12 4 12 C3.566875 10.4221875 3.566875 10.4221875 3.125 8.8125 C2.22774807 5.77181289 1.23576581 2.91287656 0 0 Z " fill="#33C2C9" transform="translate(327,231)"/>
<path d="M0 0 C0.99 0.33 1.98 0.66 3 1 C2.67 3.31 2.34 5.62 2 8 C-0.86724686 7.42655063 -1.8614515 7.1385485 -4 5 C-3.34 4.67 -2.68 4.34 -2 4 C-0.86649466 1.98330173 -0.86649466 1.98330173 0 0 Z " fill="#0799D9" transform="translate(346,262)"/>
<path d="M0 0 C1.98 0.495 1.98 0.495 4 1 C4.93065133 3.60582371 5.14917407 4.64198224 4.0625 7.25 C3.711875 7.8275 3.36125 8.405 3 9 C1.68 9 0.36 9 -1 9 C-0.33333333 7.66666667 0.33333333 6.33333333 1 5 C0.72057545 3.32345271 0.39171753 1.65391846 0 0 Z " fill="#2EB89E" transform="translate(166,250)"/>
<path d="M0 0 C1.65 0 3.3 0 5 0 C4.1875 2.9375 4.1875 2.9375 3 6 C2.01 6.33 1.02 6.66 0 7 C-1.125 2.25 -1.125 2.25 0 0 Z " fill="#049FE7" transform="translate(342,260)"/>
<path d="M0 0 C5.75 -0.125 5.75 -0.125 8 1 C8 1.66 8 2.32 8 3 C7.01 3 6.02 3 5 3 C5 3.99 5 4.98 5 6 C2.5 4.6875 2.5 4.6875 0 3 C0 2.01 0 1.02 0 0 Z " fill="#30ACAD" transform="translate(323,229)"/>
<path d="M0 0 C2.5 1.25 2.5 1.25 5 3 C5 4.32 5 5.64 5 7 C3.125 6.8125 3.125 6.8125 1 6 C-0.25 3.4375 -0.25 3.4375 -1 1 C-0.67 0.67 -0.34 0.34 0 0 Z " fill="#1DA5BB" transform="translate(320,255)"/>
<path d="M0 0 C0.66 0 1.32 0 2 0 C1.67 2.31 1.34 4.62 1 7 C-0.32 7 -1.64 7 -3 7 C-2.67 5.35 -2.34 3.7 -2 2 C-1.34 2 -0.68 2 0 2 C0 1.34 0 0.68 0 0 Z " fill="#35B6BA" transform="translate(318,239)"/>
<path d="M0 0 C1.65 0 3.3 0 5 0 C5 0.66 5 1.32 5 2 C4.01 2.66 3.02 3.32 2 4 C1.27617533 6.05925139 1.27617533 6.05925139 1 8 C0.34 8 -0.32 8 -1 8 C-1.125 2.25 -1.125 2.25 0 0 Z " fill="#36D8C7" transform="translate(308,235)"/>
<path d="M0 0 C0.66 0 1.32 0 2 0 C2 0.66 2 1.32 2 2 C4.64 2.33 7.28 2.66 10 3 C9.67 3.99 9.34 4.98 9 6 C9.66 6.33 10.32 6.66 11 7 C6.93112431 6.71612495 5.25917878 6.22537285 2.125 3.5 C0 1 0 1 0 0 Z " fill="#166D9F" transform="translate(340,266)"/>
<path d="M0 0 C0.99 0.66 1.98 1.32 3 2 C3.1875 5.125 3.1875 5.125 3 8 C2.67 6.68 2.34 5.36 2 4 C1.34 4 0.68 4 0 4 C0 4.66 0 5.32 0 6 C-0.66 6 -1.32 6 -2 6 C-2 5.34 -2 4.68 -2 4 C-2.66 3.67 -3.32 3.34 -4 3 C-2.68 2.67 -1.36 2.34 0 2 C0 1.34 0 0.68 0 0 Z " fill="#26978E" transform="translate(318,235)"/>
<path d="M0 0 C2.97 0.495 2.97 0.495 6 1 C5.34 2.65 4.68 4.3 4 6 C3.01 6 2.02 6 1 6 C0.67 4.02 0.34 2.04 0 0 Z " fill="#178DC8" transform="translate(295,282)"/>
<path d="M0 0 C2.375 -0.1875 2.375 -0.1875 5 0 C7 3 7 3 6.625 5.6875 C6.41875 6.450625 6.2125 7.21375 6 8 C5.01 7.67 4.02 7.34 3 7 C3.061875 6.21625 3.12375 5.4325 3.1875 4.625 C3.125625 3.75875 3.06375 2.8925 3 2 C2.01 1.34 1.02 0.68 0 0 Z " fill="#379588" transform="translate(138,265)"/>
<path d="M0 0 C1.0680182 2.77684731 0.96475091 4.16022313 0.3125 7.125 C-1 10 -1 10 -3.125 11.375 C-3.74375 11.58125 -4.3625 11.7875 -5 12 C-3.68938409 7.76570244 -2.05643741 3.92592596 0 0 Z " fill="#38B49F" transform="translate(150,256)"/>
<path d="M0 0 C0.33 0 0.66 0 1 0 C1 2.97 1 5.94 1 9 C1.66 9 2.32 9 3 9 C3.66 10.98 4.32 12.96 5 15 C4.34 15 3.68 15 3 15 C3 14.34 3 13.68 3 13 C2.34 13 1.68 13 1 13 C-0.00496852 9.98509443 -0.10335303 7.95818308 -0.0625 4.8125 C-0.05347656 3.91144531 -0.04445313 3.01039063 -0.03515625 2.08203125 C-0.02355469 1.39496094 -0.01195312 0.70789063 0 0 Z " fill="#1184B6" transform="translate(346,249)"/>
<path d="M0 0 C2.475 0.495 2.475 0.495 5 1 C5.33 1.99 5.66 2.98 6 4 C5.01 4 4.02 4 3 4 C2.67 4.66 2.34 5.32 2 6 C1.34 5.34 0.68 4.68 0 4 C0 2.68 0 1.36 0 0 Z " fill="#249FA3" transform="translate(296,249)"/>
<path d="M0 0 C1.32 0.33 2.64 0.66 4 1 C4.33 2.65 4.66 4.3 5 6 C3.68 5.67 2.36 5.34 1 5 C0.67 3.35 0.34 1.7 0 0 Z " fill="#1682C1" transform="translate(321,278)"/>
<path d="M0 0 C0.66 0 1.32 0 2 0 C2 1.98 2 3.96 2 6 C1.01 6.495 1.01 6.495 0 7 C-0.66 6.67 -1.32 6.34 -2 6 C-1.34 4.02 -0.68 2.04 0 0 Z " fill="#1D99B8" transform="translate(298,261)"/>
<path d="M0 0 C0.66 0 1.32 0 2 0 C2.99 1.98 3.98 3.96 5 6 C3.35 5.67 1.7 5.34 0 5 C-0.5625 3.0625 -0.5625 3.0625 -1 1 C-0.67 0.67 -0.34 0.34 0 0 Z " fill="#30CBC8" transform="translate(311,244)"/>
<path d="M0 0 C0.66 0.33 1.32 0.66 2 1 C2.625 4.0625 2.625 4.0625 3 7 C1.68 7 0.36 7 -1 7 C-1.33 6.01 -1.66 5.02 -2 4 C-1.34 4 -0.68 4 0 4 C0 2.68 0 1.36 0 0 Z " fill="#187F9C" transform="translate(325,258)"/>
<path d="M0 0 C2.00841268 0.01421885 4.01537247 0.13420475 6.01953125 0.265625 C2.33218367 2.72385672 -0.67746846 3.27805116 -4.98046875 4.265625 C-3.72152968 1.74774686 -2.88459378 0.38688832 0 0 Z " fill="#33A498" transform="translate(302.98046875,229.734375)"/>
<path d="M0 0 C0.99 0.33 1.98 0.66 3 1 C2.67 2.65 2.34 4.3 2 6 C1.01 6 0.02 6 -1 6 C-0.67 4.02 -0.34 2.04 0 0 Z " fill="#1786CA" transform="translate(335,273)"/>
<path d="M0 0 C0.99 0 1.98 0 3 0 C2.67 1.65 2.34 3.3 2 5 C0.68 5.33 -0.64 5.66 -2 6 C-1.34 4.02 -0.68 2.04 0 0 Z " fill="#1077B4" transform="translate(410,266)"/>
</svg>